<?xml version="1.0" encoding="UTF-8" standalone="no"?>
<!-- Created with Inkscape (http://www.inkscape.org/) -->

<svg
   width="52.911991mm"
   height="37.391785mm"
   viewBox="0 0 52.911991 37.391785"
   version="1.1"
   id="svg1"
   sodipodi:docname="poochie.svg"
   inkscape:version="1.4 (e7c3feb1, 2024-10-09)"
   xmlns:inkscape="http://www.inkscape.org/namespaces/inkscape"
   xmlns:sodipodi="http://sodipodi.sourceforge.net/DTD/sodipodi-0.dtd"
   xmlns="http://www.w3.org/2000/svg"
   xmlns:svg="http://www.w3.org/2000/svg">
  <sodipodi:namedview
     id="namedview1"
     pagecolor="#ffffff"
     bordercolor="#000000"
     borderopacity="0.25"
     inkscape:showpageshadow="2"
     inkscape:pageopacity="0.0"
     inkscape:pagecheckerboard="0"
     inkscape:deskcolor="#d1d1d1"
     inkscape:document-units="mm"
     inkscape:zoom="2.9436055"
     inkscape:cx="98.348778"
     inkscape:cy="73.888978"
     inkscape:window-width="1920"
     inkscape:window-height="1296"
     inkscape:window-x="0"
     inkscape:window-y="25"
     inkscape:window-maximized="0"
     inkscape:current-layer="layer1">
    <inkscape:page
       x="0"
       y="0"
       width="52.911991"
       height="37.391785"
       id="page2"
       margin="0"
       bleed="0" />
  </sodipodi:namedview>
  <defs
     id="defs1" />
  <g
     inkscape:label="Layer 1"
     inkscape:groupmode="layer"
     id="layer1"
     transform="translate(-82.020844,-129.91068)">
    <path
       style="fill:#000000;stroke-width:0;stroke-dasharray:none;stroke:#000000;stroke-opacity:1"
       d="m 97.173373,167.23891 c 0,-0.0207 0.114848,-0.2652 0.25522,-0.54327 0.255217,-0.50559 0.255217,-0.50559 -0.385453,-0.50559 -1.206608,0 -2.815325,-0.53742 -3.548195,-1.18533 -0.789844,-0.69829 -1.662917,-1.62944 -1.996337,-2.12914 -0.197384,-0.29583 -0.449109,-0.60772 -0.55939,-0.69309 -0.110281,-0.0854 -0.203506,-0.23777 -0.207166,-0.33867 -0.0037,-0.10089 -0.117266,-0.35489 -0.252454,-0.56444 -0.365319,-0.56626 -0.57289,-1.01996 -0.629442,-1.37583 -0.03373,-0.21228 -0.09497,-0.3175 -0.184787,-0.3175 -0.07389,0 -0.254715,-0.12764 -0.401847,-0.28364 -0.304972,-0.32337 -1.091266,-0.65152 -1.41351,-0.58992 -0.170809,0.0326 -0.26375,-0.0184 -0.438909,-0.24101 -0.122216,-0.15533 -0.280755,-0.3491 -0.352303,-0.43059 -0.186423,-0.21233 -0.163907,-0.3884 0.136683,-1.06895 0.249569,-0.56503 0.25776,-0.61395 0.127,-0.75844 -0.07688,-0.085 -0.139776,-0.18655 -0.139776,-0.22578 0,-0.0392 -0.05654,-0.13381 -0.125638,-0.21016 -0.0691,-0.0764 -0.170921,-0.44131 -0.226271,-0.811 -0.05535,-0.3697 -0.109324,-0.68426 -0.119944,-0.69903 -0.01061,-0.0148 -0.221499,0.0756 -0.468619,0.20082 -0.553517,0.28049 -2.062179,0.63037 -2.718105,0.63037 -0.691689,0 -1.135811,-0.19878 -1.340487,-0.59998 -0.196818,-0.3858 -0.219168,-1.08467 -0.04525,-1.41506 0.143521,-0.27264 0.833858,-0.63627 1.488316,-0.78396 0.71419,-0.16117 2.512099,-1.0488 2.944757,-1.45382 0.243554,-0.228 1.746945,-0.94079 2.600909,-1.23314 0.338241,-0.1158 0.827845,-0.18962 1.465128,-0.22093 0.831974,-0.0409 1.025713,-0.0236 1.481667,0.13232 0.617474,0.2111 1.498205,0.65173 1.498205,0.74956 0,0.0974 1.048465,0.74703 1.605188,0.99457 0.335806,0.14931 0.714631,0.22851 1.332867,0.27867 0.95558,0.0775 1.110639,0.13381 1.565045,0.56802 0.298217,0.28497 0.310034,0.31748 0.265642,0.73083 -0.08941,0.83249 -0.612413,1.3388 -1.554324,1.50471 -0.287663,0.0507 -0.490236,0.11592 -0.450162,0.145 0.04007,0.0291 0.372642,0.38625 0.739042,0.79371 0.502176,0.55845 0.718613,0.74083 0.879165,0.74083 0.258059,0 1.812081,-0.44255 2.516332,-0.7166 0.28025,-0.10905 0.65003,-0.24225 0.82175,-0.29599 0.17171,-0.0537 0.4016,-0.16804 0.51087,-0.25398 0.10926,-0.0859 0.92127,-0.53002 1.80446,-0.98683 0.88318,-0.4568 1.83439,-0.95565 2.11379,-1.10855 0.2794,-0.1529 0.61277,-0.31998 0.74083,-0.3713 0.22718,-0.091 0.23287,-0.11008 0.23399,-0.78353 10e-4,-0.87359 0.0528,-1.06028 0.30924,-1.12465 0.11302,-0.0284 0.21516,-0.0375 0.22698,-0.0202 0.0118,0.0172 5.2e-4,0.52172 -0.0251,1.12107 -0.0306,0.71494 -0.0114,1.23908 0.0556,1.52399 0.0562,0.23886 0.10386,0.5417 0.10583,0.673 0.003,0.19849 -0.0278,0.23416 -0.18255,0.21167 -0.15924,-0.0232 -0.19952,-0.10912 -0.27874,-0.59508 -0.0509,-0.31241 -0.11603,-0.59145 -0.14466,-0.62008 -0.0602,-0.0602 -0.41166,0.11149 -0.93125,0.45513 -0.45107,0.29833 -2.72807,1.45477 -4.08954,2.07701 -0.97205,0.44425 -1.966631,0.80817 -2.5656,0.93874 -0.279601,0.061 -0.279601,0.061 0.105833,0.30539 0.418365,0.26532 0.508307,0.50217 0.190699,0.50217 -0.107103,0 -0.230928,-0.0334 -0.275167,-0.0742 -0.173355,-0.15995 -0.884766,-0.5106 -0.884766,-0.43611 0,0.0435 0.1524,0.20147 0.338666,0.35116 0.513855,0.41295 0.392525,0.69603 -0.151143,0.35265 -0.419632,-0.26504 -1.47456,-1.24298 -2.035371,-1.88683 -0.501838,-0.57614 -0.588976,-0.64001 -0.940128,-0.68907 -0.212862,-0.0297 -0.482274,-0.0786 -0.598691,-0.10861 -0.194487,-0.0501 -0.237916,-0.003 -0.535099,0.57863 -0.459533,0.8996 -1.202203,1.62548 -2.151443,2.10279 -0.742458,0.37333 -0.742458,0.37333 -0.787696,0.87463 -0.07199,0.79767 -0.522182,1.46864 -1.055429,1.573 -0.215352,0.0421 -0.189269,0.29644 0.08982,0.87563 0.942899,1.9568 2.835394,4.13445 4.12336,4.74464 0.856604,0.40583 1.80786,0.63169 2.660462,0.63169 0.669792,0 0.712414,-0.011 0.785526,-0.20333 0.05719,-0.15043 0.165093,-0.21817 0.414653,-0.26033 0.313042,-0.0529 0.373684,-0.11296 0.84178,-0.83383 0.277436,-0.42726 0.590166,-0.94829 0.694944,-1.15784 0.10479,-0.20955 0.43318,-0.791 0.72976,-1.29212 0.29658,-0.50111 0.98,-1.77746 1.51872,-2.83633 0.56289,-1.10638 1.03636,-1.93788 1.1132,-1.95499 0.20179,-0.0449 0.0991,0.42248 -0.24875,1.13181 -0.59701,1.21756 -1.72004,3.33106 -2.23253,4.20158 -0.29173,0.49552 -0.63305,1.10348 -0.75848,1.35101 -0.12544,0.24754 -0.417158,0.73561 -0.648272,1.0846 -0.312661,0.47214 -0.409331,0.68976 -0.377722,0.85032 0.04637,0.23554 -0.09731,0.86591 -0.266298,1.16828 -0.128217,0.22944 -0.693171,0.28119 -0.693171,0.0635 0,-0.16099 -0.159644,-0.16609 -0.220673,-0.007 -0.03011,0.0785 -0.175554,0.11994 -0.420677,0.11994 -0.206057,0 -0.37465,-0.017 -0.37465,-0.0377 z m 1.466205,-0.90813 c 0.17322,-0.54952 0.173696,-0.56406 0.01844,-0.56406 -0.137586,0 -0.251198,0.181 -0.427815,0.68159 -0.115004,0.32596 -0.113123,0.33441 0.07446,0.33441 0.158327,0 0.21771,-0.0801 0.33491,-0.45194 z m -8.282112,-7.19318 c 0.203295,-0.11514 0.417928,-0.33578 0.537527,-0.55259 0.212471,-0.38517 0.329798,-1.19275 0.230667,-1.58772 -0.05853,-0.2332 -0.05853,-0.2332 -0.210056,0.0136 -0.283776,0.46223 -0.9638,1.14661 -1.369586,1.37836 -0.404768,0.23118 -0.404768,0.23118 -0.187063,0.50935 0.183139,0.23401 0.437605,0.40976 0.617752,0.42668 0.02328,0.002 0.194624,-0.0823 0.380759,-0.1877 z m -1.243084,-0.91913 c 0.522044,-0.25271 1.115655,-0.87437 1.984737,-2.0785 0.857227,-1.18771 1.464379,-1.81831 2.028606,-2.10695 0.484986,-0.24811 0.703955,-0.25226 1.844315,-0.035 0.488765,0.0931 0.997177,0.16934 1.129802,0.16934 0.459137,0 1.170337,-0.26722 1.497233,-0.56255 0.434051,-0.39214 0.533897,-0.69327 0.350445,-1.05691 -0.218789,-0.43369 -0.589478,-0.5967 -1.555932,-0.68421 -1.073436,-0.0972 -1.479532,-0.25941 -2.71077,-1.08276 -1.389563,-0.92921 -1.740239,-1.05706 -2.901778,-1.0579 -0.67614,-5e-4 -1.058929,0.0416 -1.397,0.15374 -0.797647,0.26449 -2.136137,0.94038 -2.962127,1.49577 -0.937699,0.63051 -1.520211,0.90544 -2.684317,1.26691 -0.979651,0.3042 -1.257167,0.48396 -1.368242,0.88624 -0.110646,0.40073 -0.03039,0.69635 0.254029,0.93567 0.341815,0.28762 0.770485,0.39103 1.246105,0.3006 1.059225,-0.20138 1.705473,-0.38359 2.146639,-0.60523 0.26643,-0.13386 0.537144,-0.24337 0.601583,-0.24337 0.06444,0 0.152527,-0.12383 0.195742,-0.27517 0.05385,-0.18858 0.13763,-0.28368 0.266247,-0.30222 0.222586,-0.0321 0.21925,-0.0601 0.06388,0.53639 -0.147802,0.56745 -0.109601,0.83044 0.230391,1.58614 0.210952,0.46887 0.278479,0.55374 0.37614,0.47269 0.268229,-0.22261 1.043093,-1.67561 1.222827,-2.293 0.146902,-0.50461 0.226216,-0.65617 0.343395,-0.65617 0.199181,0 0.194283,0.183 -0.02413,0.90125 -0.203102,0.66791 -0.63015,1.49309 -1.090599,2.10736 -0.828152,1.1048 -1.003311,1.99561 -0.455063,2.31433 0.266092,0.15468 0.960282,0.11077 1.367833,-0.0865 z m 3.021325,-1.40714 c 0.739081,-0.37421 1.471345,-1.0895 1.93422,-1.88938 0.298291,-0.51547 0.292825,-0.6699 -0.02371,-0.6699 -0.606865,0 -1.400223,0.57475 -2.110666,1.52906 -0.425792,0.57195 -0.482992,0.69387 -0.45162,0.96259 0.03936,0.33718 0.10578,0.34408 0.651774,0.0676 z m 9.355663,10.43368 c 0,-0.0999 0.39799,-0.82431 1.18434,-2.15563 0.45383,-0.76835 0.92871,-1.60215 1.05527,-1.85289 0.22929,-0.45424 0.22956,-0.45693 0.0748,-0.74447 -0.1537,-0.28549 -0.15322,-0.2924 0.045,-0.64477 0.1102,-0.19591 0.29438,-0.53293 0.4093,-0.74893 0.11491,-0.21601 0.31317,-0.5176 0.44057,-0.67021 0.22486,-0.26934 0.2285,-0.29008 0.12421,-0.70793 -0.1842,-0.73797 -0.54132,-2.71074 -0.59524,-3.28812 -0.0887,-0.94969 -0.0191,-1.11912 0.63203,-1.53913 0.60226,-0.38846 1.90176,-1.06421 2.04656,-1.06421 0.0476,0 0.0859,0.0857 0.0852,0.1905 -10e-4,0.15708 -0.17413,0.27962 -0.98616,0.6985 -0.54163,0.2794 -1.09346,0.60901 -1.22629,0.73247 -0.28065,0.26085 -0.29972,0.50763 -0.11678,1.5112 0.0637,0.34925 0.19706,1.08903 0.29644,1.64397 0.18496,1.03286 0.29291,1.35897 0.42323,1.27843 0.0406,-0.0251 0.10031,-0.16907 0.13259,-0.31987 0.19075,-0.89137 1.84148,-4.2213 2.68155,-5.40935 0.32847,-0.46455 1.34185,-1.74105 1.75194,-2.20683 0.15848,-0.18 0.40981,-0.56909 0.55851,-0.86463 0.27036,-0.53736 0.27036,-0.53736 -0.85752,-0.59777 -0.62034,-0.0332 -1.35744,-0.0338 -1.63801,-0.001 -0.41967,0.0487 -0.51012,0.0371 -0.51012,-0.0655 0,-0.18819 0.37198,-0.22997 2.10608,-0.23655 1.57692,-0.006 1.57692,-0.006 1.19592,-0.17444 -0.41459,-0.1833 -0.84667,-0.55045 -0.84667,-0.71942 0,-0.2003 -0.14101,-0.19202 -0.90289,0.053 -2.17355,0.69898 -4.45925,0.80155 -5.65878,0.25394 -0.18626,-0.085 -0.51011,-0.18096 -0.71966,-0.21318 -0.54019,-0.083 -1.38418,-0.54874 -2.06824,-1.1412 -0.32262,-0.27942 -0.610389,-0.50803 -0.639501,-0.50803 -0.09216,0 -0.731007,-0.95754 -0.910535,-1.36477 -0.161115,-0.36547 -0.198234,-0.39498 -0.566147,-0.45015 -0.55703,-0.0835 -1.154914,-0.41907 -1.515605,-0.85057 -0.431747,-0.51651 -0.511649,-0.72729 -0.444767,-1.17329 0.08889,-0.59278 0.467865,-1.04205 1.134811,-1.34532 0.837343,-0.38075 1.381807,-0.55308 1.933821,-0.61209 0.953893,-0.10197 1.552163,-0.23288 1.552163,-0.33963 0,-0.0703 0.21819,-0.12318 0.65616,-0.15904 1.92588,-0.15767 1.7762,-0.10357 1.81619,-0.65646 0.0279,-0.38637 0.095,-0.57744 0.30572,-0.87083 0.14846,-0.20673 0.26993,-0.41726 0.26993,-0.46786 0,-0.0506 0.0571,-0.092 0.127,-0.092 0.15536,0 0.15536,-0.0138 0,-0.59267 -0.0687,-0.25611 -0.12545,-0.59068 -0.126,-0.74349 -5.3e-4,-0.17116 -0.051,-0.297 -0.13119,-0.32778 -0.34719,-0.13323 -1.76489,0.70274 -2.17252,1.28105 -0.31337,0.44458 -0.57596,0.51176 -0.57596,0.14734 0,-0.24994 0.16028,-0.88185 0.34829,-1.37312 0.15077,-0.39396 1.4526,-1.6829 1.95888,-1.93947 0.4476,-0.22684 0.49283,-0.30664 0.21166,-0.3734 -0.8115,-0.1927 -1.98848,-0.15271 -2.2165,0.0753 -0.15648,0.15648 -1.06452,0.16934 -1.06391,0.0151 10e-4,-0.26578 0.91577,-1.05463 1.54633,-1.33356 0.21464,-0.0949 0.72596,-0.22443 1.13625,-0.28774 0.83943,-0.12953 1.06385,-0.20155 0.99173,-0.31824 -0.0848,-0.13718 -0.9736,-0.49462 -1.22993,-0.49462 -0.13804,0 -0.2437,-0.0458 -0.244,-0.10583 -2.7e-4,-0.0582 -0.11742,-0.17236 -0.26027,-0.25367 -0.16276,-0.0926 -0.24928,-0.20215 -0.23172,-0.29333 0.0504,-0.26168 0.51573,-0.31618 1.70839,-0.20007 0.61186,0.0596 1.22677,0.11391 1.36647,0.12077 0.1397,0.007 0.32693,0.0556 0.41606,0.10827 0.13663,0.0808 0.19489,0.0568 0.3712,-0.15273 0.23466,-0.27887 0.9459,-0.77691 1.5834,-1.10875 0.69356,-0.36102 1.36286,-0.65466 1.49217,-0.65466 0.0666,0 0.19747,-0.0535 0.29075,-0.11879 0.0933,-0.0653 0.58753,-0.2082 1.09834,-0.31748 0.83106,-0.17779 1.14691,-0.19869 3.00308,-0.19871 1.74515,-2e-5 2.18853,0.0259 2.794,0.16354 1.0723,0.24369 1.85452,0.70219 3.06391,1.79589 0.83947,0.75917 1.4569,1.54662 1.82719,2.33034 0.25191,0.53317 0.86623,2.36328 0.86623,2.58058 0,0.0613 0.0857,0.12831 0.1905,0.14897 0.10477,0.0206 0.6477,0.11837 1.2065,0.21714 0.5588,0.0988 1.2446,0.25089 1.524,0.33805 0.2794,0.0872 0.8128,0.2172 1.18533,0.289 1.85311,0.35716 2.59697,0.56645 3.34057,0.93991 0.41931,0.21059 0.80524,0.38289 0.85761,0.38289 0.17499,0 0.96353,0.43269 1.20688,0.66224 0.33443,0.31547 0.47928,0.62581 0.47928,1.02689 0,0.32576 -0.0129,0.34287 -0.25821,0.34287 -0.14201,0 -0.37671,-0.0613 -0.52155,-0.13618 -0.15045,-0.0778 -0.53883,-0.14929 -0.90596,-0.16677 -0.35344,-0.0168 -0.68072,-0.0351 -0.72728,-0.0406 -0.31586,-0.0373 -1.6031,0.14643 -2.4696,0.35251 -0.56665,0.13476 -1.07034,0.24502 -1.11933,0.24502 -0.049,0 -0.29021,0.0906 -0.53606,0.20131 -0.80503,0.36253 -1.89335,0.73002 -2.16195,0.73002 -0.19412,0 -0.27832,0.0473 -0.32042,0.17991 -0.0332,0.10477 -0.0159,0.20536 0.0415,0.24086 0.0602,0.0372 0.0767,0.14851 0.0422,0.28577 -0.031,0.12364 -0.0215,0.2248 0.0211,0.2248 0.0427,0 0.0776,0.19325 0.0776,0.42944 0,0.26092 0.0432,0.45612 0.11001,0.49743 0.0675,0.0417 0.0881,0.13709 0.0532,0.24693 -0.0761,0.2399 0.20882,1.24905 0.62114,2.19971 0.28011,0.64582 0.31254,0.77475 0.19437,0.77275 -0.19027,-0.003 -0.62475,-0.73905 -0.89845,-1.5216 -0.3332,-0.95268 -0.59354,-2.38598 -0.59595,-3.2809 -10e-4,-0.43079 -0.0307,-0.78321 -0.0656,-0.78317 -0.10629,1.2e-4 -0.0708,-0.23688 0.0423,-0.28252 0.0823,-0.0332 0.0815,-0.0442 -0.004,-0.0494 -0.0602,-0.004 -0.19351,-0.0876 -0.29634,-0.18652 -0.2748,-0.26435 -1.29287,-0.72834 -1.91025,-0.87061 -0.53796,-0.12397 -0.53796,-0.12397 -0.48517,0.23041 0.10074,0.6763 0.0648,4.31089 -0.0504,5.0957 -0.14452,0.98472 -0.14075,3.57198 0.006,4.191 0.16295,0.68688 0.83111,2.16989 1.23974,2.75167 0.84793,1.20723 1.64692,1.651 2.97258,1.651 0.88485,0 1.44196,-0.11736 2.18906,-0.46115 0.73899,-0.34005 1.143,-0.67248 1.143,-0.94048 0,-0.12855 -0.21175,-0.44115 -0.58621,-0.86541 -0.99122,-1.12304 -2.34178,-3.13902 -2.51416,-3.7529 -0.0706,-0.25138 -0.14928,-0.52373 -0.17486,-0.60523 -0.0364,-0.1159 0.003,-0.14816 0.18108,-0.14816 0.19093,0 0.22333,0.0326 0.20109,0.20231 -0.0326,0.24845 0.6146,1.40701 0.99311,1.7779 0.14789,0.1449 0.57618,0.72264 0.95177,1.28387 0.37559,0.56124 0.83764,1.15179 1.02678,1.31234 0.18914,0.16055 0.34408,0.35437 0.34431,0.43071 2.5e-4,0.0817 0.50586,0.49959 1.22933,1.016 2.50929,1.79114 2.87645,2.10163 4.09088,3.45953 1.16489,1.30253 1.61927,2.46712 1.62163,4.15629 0.004,2.62993 -1.03396,3.97945 -3.55111,4.61849 -0.73632,0.18693 -0.99159,0.20514 -3.175,0.22649 -2.3743,0.0232 -2.3743,0.0232 -2.34645,0.63331 0.0254,0.55634 0.0134,0.61009 -0.13592,0.61009 -0.14042,0 -0.17148,-0.0815 -0.21775,-0.5715 -0.0858,-0.90878 -0.0648,-1.47379 0.0735,-1.97122 0.61201,-2.20186 0.71954,-2.93995 0.54881,-3.76708 -0.33396,-1.61784 -1.55612,-2.50377 -4.6083,-3.3405 -0.90409,-0.24784 -1.9484,-0.77585 -2.55018,-1.28936 -0.27239,-0.23245 -0.58544,-0.45692 -0.69565,-0.49882 -0.72101,-0.27413 -1.4632,0.33475 -1.33475,1.09501 0.0918,0.54322 0.39916,0.95427 1.29355,1.72984 0.85535,0.7417 0.86784,0.75789 0.86784,1.12535 0,0.25773 -0.11681,0.63627 -0.37838,1.22621 -0.449,1.0127 -0.92319,2.44765 -1.06209,3.21407 -0.12037,0.66416 -0.15071,1.99275 -0.0594,2.6035 0.0664,0.4445 0.0664,0.4445 -0.1905,0.4445 -0.23667,0 -0.35449,-0.11741 -0.18409,-0.18345 0.04,-0.0155 0.0423,-0.27587 0.005,-0.57855 -0.0372,-0.30269 -0.0447,-0.7771 -0.0166,-1.05425 0.0511,-0.50391 0.0511,-0.50391 -0.23795,-0.32473 -0.39331,0.24385 -0.7576,0.77257 -0.81206,1.17858 -0.0371,0.27686 -0.006,0.38159 0.17551,0.59776 0.27925,0.33187 0.27642,0.36464 -0.0315,0.36464 -0.38534,0 -0.53774,-0.29664 -0.49525,-0.96397 0.0439,-0.6889 0.31457,-1.11795 0.94954,-1.50498 0.46383,-0.28272 0.46383,-0.28272 0.56383,-0.8664 0.10932,-0.63803 0.50304,-1.85045 0.924,-2.84532 0.62578,-1.47892 0.62548,-1.31559 0.003,-1.85301 -1.14821,-0.99183 -1.41319,-1.29502 -1.55728,-1.78185 -0.26574,-0.8978 -0.12788,-1.49638 0.42747,-1.85616 0.26322,-0.17052 0.38997,-0.19471 0.87625,-0.16723 0.46136,0.0261 0.6266,0.0764 0.87667,0.26716 0.30816,0.23504 0.30816,0.23504 0.30816,-0.0521 0,-0.73331 0.60584,-2.35388 1.15166,-3.08063 0.20187,-0.26877 0.20187,-0.26877 -0.0467,-0.79434 -0.1367,-0.28906 -0.33355,-0.79938 -0.43743,-1.13404 -0.18889,-0.60848 -0.18889,-0.60848 -1.21138,-0.7092 -1.39144,-0.13706 -1.74216,-0.13149 -1.74216,0.0277 0,0.0705 -0.0753,0.127 -0.16933,0.127 -0.0931,0 -0.16934,-0.056 -0.16934,-0.12435 0,-0.18863 -0.24196,-0.0599 -0.37655,0.20042 -0.064,0.12369 -0.21966,0.89059 -0.34599,1.70424 -0.26404,1.7006 -0.12853,1.47973 -1.59414,2.59832 -0.45926,0.35051 -0.91646,0.73135 -1.016,0.84631 -0.44163,0.51001 -3.12329,2.39508 -6.40398,4.50168 -0.16299,0.10465 -0.22014,0.16972 -0.127,0.1446 1.06683,-0.28781 3.25472,-0.82414 5.18075,-1.26999 2.59074,-0.59972 3.19751,-0.81382 3.49653,-1.23376 0.18314,-0.2572 0.19177,-0.32749 0.14429,-1.17468 -0.0278,-0.49562 -0.11405,-1.12973 -0.19173,-1.40913 -0.25163,-0.90507 -0.25172,-0.90723 -0.0352,-0.8752 0.1464,0.0217 0.22005,0.12036 0.30556,0.40954 0.19801,0.6696 0.31877,1.5442 0.32368,2.34409 0.005,0.74973 -0.004,0.78721 -0.24627,1.03963 -0.41367,0.43152 -1.04477,0.66181 -3.15692,1.15195 -1.79723,0.41706 -5.92472,1.41738 -6.30755,1.52867 -0.0815,0.0237 -0.14816,0.10417 -0.14816,0.17886 0,0.0747 -0.0528,0.19595 -0.11738,0.26946 -0.1149,0.13084 -0.44333,0.87818 -0.70059,1.59417 -0.10326,0.2874 -0.17017,0.35983 -0.33239,0.35983 -0.17515,0 -0.27834,0.14856 -0.74981,1.0795 -0.3007,0.59373 -0.82841,1.5748 -1.17269,2.18017 -0.60882,1.07051 -0.83517,1.30695 -1.00087,1.0455 -0.0536,-0.0845 -0.0727,-0.0867 -0.0736,-0.008 -8e-4,0.0582 -0.0966,0.10584 -0.21297,0.10584 -0.11641,0 -0.21166,-0.0206 -0.21166,-0.0457 z m 29.36174,-1.69603 c 0.87969,-0.17937 1.98024,-0.63636 2.44021,-1.01327 1.04514,-0.85642 1.5573,-2.88127 1.14503,-4.52697 -0.27983,-1.11701 -0.66313,-1.80516 -1.53763,-2.76058 -0.95555,-1.04397 -1.68201,-1.72175 -2.23644,-2.08658 -1.36723,-0.89969 -2.15658,-1.44113 -2.41267,-1.65493 -0.28986,-0.24199 -0.28986,-0.24199 -0.53283,0.0347 -0.28404,0.32351 -1.44294,0.90107 -2.08383,1.03852 -0.24489,0.0525 -0.83941,0.0955 -1.32116,0.0955 -0.92626,0 -1.68449,-0.17095 -2.2189,-0.50028 -0.24584,-0.15149 -0.99993,-0.98716 -1.20848,-1.33921 -0.0824,-0.13903 -0.1017,-0.13447 -0.2606,0.0615 -0.26612,0.32818 -0.80428,1.50657 -0.96666,2.11666 -0.0806,0.30269 -0.1341,0.71997 -0.11896,0.9273 0.0275,0.37697 0.0275,0.37697 0.69798,0.73356 0.36876,0.19612 0.93441,0.43989 1.25702,0.54171 0.54319,0.17143 0.64386,0.17789 1.36154,0.0874 0.42624,-0.0538 1.68938,-0.11924 2.80698,-0.14549 1.1176,-0.0263 2.09315,-0.0797 2.1679,-0.11884 0.21351,-0.1117 1.26077,-0.25911 1.43898,-0.20255 0.28153,0.0893 0.1907,0.29362 -0.13055,0.29362 -0.47555,0 -0.42543,0.15222 0.0705,0.21419 0.5087,0.0635 0.98281,0.3068 0.98281,0.50423 0,0.15164 -0.34299,0.17472 -0.48506,0.0326 -0.1677,-0.1677 -1.88091,-0.40398 -2.94394,-0.40602 -1.016,-0.002 -1.016,-0.002 -0.71966,0.144 0.81734,0.40255 1.26309,0.87432 1.73786,1.83928 0.39511,0.80308 0.54814,1.45928 0.54814,2.35058 0,1.44453 -0.41882,2.60895 -1.23024,3.42037 -0.45205,0.45205 -0.45205,0.45205 1.32399,0.45205 1.28145,0 1.95779,-0.0371 2.42865,-0.13307 z m -0.6428,-8.51986 c -0.15034,-0.15034 -0.12328,-0.32173 0.0508,-0.32173 0.17828,0 0.3556,0.1562 0.3556,0.31326 0,0.13825 -0.27098,0.14389 -0.4064,0.008 z m -3.80711,8.31675 c 0.27651,-0.25152 0.27651,-0.25152 0.0606,-0.254 -0.11875,-0.001 -0.25723,-0.0438 -0.30773,-0.0943 -0.066,-0.066 -0.13031,-0.0147 -0.2286,0.18234 -0.0752,0.15079 -0.13677,0.30641 -0.13677,0.34583 0,0.15979 0.35309,0.0561 0.61249,-0.17986 z m 0.35513,-0.81286 c 0.13737,-0.13738 0.17629,-0.38816 0.0758,-0.48862 -0.0866,-0.0866 -0.45078,0.29067 -0.45078,0.46709 0,0.18974 0.19552,0.20096 0.37496,0.0215 z m 0.96672,-1.10011 c 0.2739,-0.81585 0.35272,-1.62182 0.22422,-2.29288 -0.27182,-1.41952 -0.9867,-2.54754 -1.99409,-3.14654 -0.61158,-0.36364 -1.82978,-0.5424 -2.6197,-0.38442 -0.26419,0.0528 -0.24938,0.0644 0.37454,0.29184 1.14845,0.41871 2.13178,1.25562 2.57685,2.19315 0.20138,0.42422 0.22117,0.55986 0.22228,1.524 7.9e-4,0.58208 -0.0314,1.27491 -0.0713,1.53961 -0.0697,0.46265 -0.0657,0.47949 0.10448,0.43498 0.3307,-0.0865 0.58652,0.0419 0.69807,0.35042 0.0958,0.26485 0.1157,0.2783 0.21087,0.14242 0.0578,-0.0825 0.18103,-0.3762 0.27382,-0.65258 z m -22.86994,-0.93467 c -0.0281,-0.0281 -0.10116,-0.0311 -0.16228,-0.007 -0.0675,0.027 -0.0475,0.0471 0.0512,0.0512 0.0893,0.004 0.13925,-0.0163 0.11112,-0.0445 z m 0.52354,-1.45168 c 0.11152,-0.31432 0.22003,-0.61912 0.24113,-0.67733 0.0211,-0.0582 -0.0173,-0.10583 -0.0853,-0.10583 -0.10006,0 -0.91048,1.0866 -0.91048,1.22076 0,0.0329 0.20807,0.0875 0.46642,0.12237 0.047,0.006 0.17667,-0.24564 0.28819,-0.55997 z m 1.23506,-1.63676 c 0.32596,-0.21784 1.41181,-0.93904 2.413,-1.60267 1.47861,-0.9801 3.72533,-2.58543 3.72533,-2.66183 0,-0.01 -0.50483,-9.8e-4 -1.12183,0.019 -1,0.0324 -1.17476,0.0164 -1.60913,-0.14787 -0.51542,-0.19487 -0.84838,-0.52917 -0.95583,-0.95968 -0.0586,-0.2347 -0.0637,-0.23107 -0.41488,0.29634 -0.65061,0.97702 -1.92137,3.37618 -2.37221,4.47868 -0.24475,0.59853 -0.40273,1.06255 -0.35106,1.03115 0.0517,-0.0314 0.36064,-0.23531 0.68661,-0.45314 z m 5.69966,-4.60905 c 0.43395,-0.0704 0.9102,-0.17893 1.05834,-0.24122 0.28397,-0.11942 1.92017,-1.37789 1.92055,-1.47717 7.9e-4,-0.21617 0.44221,-2.82129 0.51599,-3.04546 0.0504,-0.15299 0.17389,-0.32961 0.27451,-0.39249 0.29763,-0.18598 1.36546,-0.2285 2.46893,-0.0983 0.5588,0.0659 1.02289,0.11298 1.03133,0.10454 0.008,-0.008 -0.0271,-0.42482 -0.079,-0.92531 -0.0804,-0.77494 -0.0701,-1.13285 0.0693,-2.41179 0.20651,-1.89433 0.23872,-5.99143 0.048,-6.10921 -0.0636,-0.0393 -0.41749,-0.0978 -0.78634,-0.12996 -0.67063,-0.0585 -0.67063,-0.0585 -1.11492,0.39294 -0.55376,0.56269 -1.26361,1.03825 -2.04104,1.3674 -0.50294,0.21294 -0.74259,0.25967 -1.49869,0.2922 -1.1258,0.0485 -1.65862,-0.0441 -3.34238,-0.58039 -0.81537,-0.25972 -1.35406,-0.39241 -1.37219,-0.33801 -0.0176,0.0527 -0.30075,0.0896 -0.68873,0.0896 -1.03752,0 -4.11007,0.15783 -5.04201,0.259 -1.00182,0.10876 -2.24446,0.33534 -2.24174,0.40876 0.001,0.0285 0.12488,0.11219 0.27516,0.18586 0.59744,0.29287 0.84539,1.02278 0.61577,1.81267 -0.10898,0.37486 -0.24454,0.58005 -0.66309,1.00371 -0.43217,0.43745 -0.63656,0.57307 -1.14478,0.7596 -0.34027,0.12489 -0.768893,0.22707 -0.952498,0.22707 -0.183602,0 -0.333465,0.0286 -0.333028,0.0635 0.0024,0.1993 0.606504,1.0665 1.049986,1.50751 0.59728,0.59394 1.66418,1.31645 2.26072,1.53096 0.22761,0.0819 0.41383,0.18164 0.41383,0.22175 0,0.0401 0.0346,0.0515 0.077,0.0254 0.0423,-0.0262 0.41381,0.0349 0.8255,0.13568 1.91171,0.46801 4.12892,0.0899 6.76566,-1.15383 1.76218,-0.8312 4.66923,-2.58748 5.53667,-3.34496 0.26599,-0.23227 0.27579,-0.25598 0.10584,-0.25598 -0.11005,0 -0.1873,-0.0524 -0.1873,-0.127 0,-0.0978 0.10908,-0.127 0.47376,-0.127 0.53159,0 0.96557,0.23092 0.96557,0.51377 0,0.20567 -0.15174,0.20585 -0.41892,5e-4 -0.20726,-0.15929 -0.20726,-0.15929 -0.67734,0.26274 -0.92195,0.82773 -3.19238,2.22491 -5.35957,3.29817 -0.5006,0.24791 -0.91017,0.47724 -0.91017,0.50961 0,0.16405 0.47176,0.58435 0.79402,0.70742 0.3047,0.11637 0.44844,0.12447 0.85981,0.0484 1.09422,-0.20228 1.6247,-0.0669 1.27501,0.32536 -0.0785,0.0881 -0.15194,0.53804 -0.21526,1.319 -0.12308,1.51801 -0.15183,1.651 -0.35692,1.651 -0.17235,0 -0.48608,-0.56365 -0.49483,-0.889 -0.005,-0.16934 -0.005,-0.16934 -0.13436,0 -0.0714,0.0931 -0.26435,0.44764 -0.42878,0.7878 -0.21594,0.44671 -0.33786,0.61062 -0.439,0.59017 -0.12121,-0.0245 -0.13772,-0.1517 -0.12286,-0.94697 0.0172,-0.91867 0.0172,-0.91867 -0.17479,-0.73833 -0.10557,0.0992 -0.24665,0.18193 -0.3135,0.18388 -0.13189,0.004 -1.17987,1.36632 -1.17987,1.53394 0,0.0563 0.0801,0.26785 0.178,0.47009 0.19632,0.40554 0.47217,0.58843 1.13433,0.75207 0.57122,0.14116 0.79841,0.13989 1.72033,-0.01 z m -0.23372,-3.34269 c 0.1011,0 0.19045,0.11777 0.27303,0.35984 0.12275,0.35983 0.12275,0.35983 0.17299,-0.10584 0.0276,-0.25611 0.0724,-0.72844 0.0996,-1.04961 0.0494,-0.58394 0.0494,-0.58394 -0.47704,-0.52892 -0.59006,0.0617 -0.72592,0.15401 -1.08479,0.73725 -0.2456,0.39916 -0.2456,0.39916 0.023,0.38739 0.2686,-0.0118 0.2686,-0.0118 0.24044,0.53856 -0.0281,0.55033 -0.0281,0.55033 0.28718,0.10583 0.17793,-0.25082 0.3808,-0.4445 0.4656,-0.4445 z M 99.436442,145.5649 c -0.02813,-0.0281 -0.101158,-0.0311 -0.162277,-0.007 -0.06754,0.027 -0.04748,0.0471 0.05115,0.0512 0.08925,0.004 0.139261,-0.0163 0.111125,-0.0445 z m 0.911928,-0.97273 c 0.68423,-0.21452 0.889,-0.21002 0.889,0.0195 0,0.15328 0.0405,0.1306 0.26482,-0.14816 0.31245,-0.38833 0.49718,-0.79166 0.49718,-1.08548 0,-0.33295 -0.43727,-0.75845 -0.9631,-0.93719 -0.41867,-0.14231 -0.53406,-0.14759 -1.16888,-0.0535 -0.815552,0.12085 -1.254683,0.24567 -1.254683,0.35662 0,0.043 -0.06668,0.0785 -0.148167,0.0789 -0.240276,0.001 -1.007266,0.4814 -1.198838,0.75044 -0.09735,0.13671 -0.176995,0.34568 -0.176995,0.46437 0,0.17585 0.07446,0.24899 0.402166,0.39505 1.012394,0.45122 1.788729,0.49455 2.857497,0.15946 z m 22.91395,-2.791 c -0.15659,-0.0955 -0.30581,-0.15247 -0.33161,-0.12668 -0.0258,0.0258 -0.002,0.0469 0.0519,0.0469 0.0543,0 0.0988,0.0571 0.0988,0.127 0,0.0822 0.0822,0.12688 0.23284,0.12668 0.23283,-3.2e-4 0.23283,-3.2e-4 -0.0519,-0.1739 z m -7.88561,-0.24285 c 0.74342,-0.29915 1.64416,-0.90239 2.11241,-1.41473 0.43301,-0.47378 0.43301,-0.47378 1.17113,-0.41414 1.65143,0.13343 2.9646,0.47593 3.74516,0.97682 0.26256,0.16848 0.42196,0.3314 0.42196,0.43128 0,0.10828 0.0598,0.1605 0.18384,0.1605 0.10111,0 0.25872,0.0667 0.35025,0.14817 0.16353,0.1456 0.1657,0.14051 0.12517,-0.29376 -0.0251,-0.26938 -0.11869,-0.55497 -0.23961,-0.73144 -0.2353,-0.3434 -1.02603,-0.89342 -1.7246,-1.1996 -0.64313,-0.28189 -2.17973,-0.67784 -3.14676,-0.81086 -0.72601,-0.0999 -0.7726,-0.11959 -1.20199,-0.50898 -0.56015,-0.50795 -1.32045,-0.88535 -2.11694,-1.0508 -0.74734,-0.15524 -2.29223,-0.0616 -2.89736,0.17559 -0.53661,0.21034 -1.37394,0.77547 -2.11269,1.4259 -0.37362,0.32895 -0.78559,0.60825 -1.00992,0.68468 -0.47931,0.16332 -1.20193,0.16381 -1.73801,10e-4 -0.43061,-0.13063 -1.5427,-0.17039 -1.71409,-0.0613 -0.0537,0.0342 0.22076,0.0664 0.61001,0.0716 0.58515,0.008 0.78867,0.049 1.17518,0.23807 0.65428,0.32011 0.83072,0.56851 0.7957,1.12029 -0.0278,0.43889 -0.0278,0.43889 0.86763,0.39151 0.88032,-0.0466 0.91327,-0.0415 1.94733,0.30171 1.64439,0.54575 1.95617,0.6054 2.9992,0.57386 0.71656,-0.0217 1.03872,-0.0714 1.397,-0.21554 z m -3.25967,-0.29796 c -1.39417,-0.27054 -1.905,-0.72891 -1.905,-1.70937 0,-0.61497 0.22177,-1.08695 0.73149,-1.5568 0.72298,-0.66642 1.77599,-1.01489 3.06151,-1.01313 1.25072,0.002 2.17772,0.36609 2.85898,1.12383 0.62721,0.6976 0.61853,1.31237 -0.0274,1.93969 -0.5028,0.48834 -1.10038,0.85192 -1.75627,1.06858 -0.68615,0.22665 -2.17323,0.30052 -2.96333,0.1472 z m 2.77376,-0.47001 c 1.03599,-0.38761 2.09457,-1.23832 2.09457,-1.68326 0,-0.50288 -0.96104,-1.34611 -1.85199,-1.62497 -1.97724,-0.61886 -4.58267,0.53149 -4.58267,2.02335 0,0.73321 0.48843,1.15396 1.64818,1.41979 0.70427,0.16143 2.08479,0.0922 2.69191,-0.13491 z m 11.53491,0.17589 c 1.3691,-0.43295 1.80156,-0.5124 2.49766,-0.45883 0.30269,0.0233 0.69723,0.0101 0.87676,-0.0292 0.32643,-0.0716 0.32643,-0.0716 -0.381,-0.35378 -1.05157,-0.41945 -5.65692,-2.04326 -5.99909,-2.11523 -0.21685,-0.0456 -0.30359,-0.1125 -0.32339,-0.24938 -0.0203,-0.14025 0.0158,-0.18705 0.14429,-0.18705 0.45634,0 6.20107,2.11268 7.90493,2.90712 0.36089,0.16826 0.65617,0.26691 0.65617,0.2192 0,-0.19031 -0.26881,-0.58883 -0.52908,-0.78437 -1.09493,-0.82266 -3.47184,-1.59212 -7.09433,-2.29658 -0.85961,-0.16717 -1.64485,-0.32174 -1.74499,-0.34349 -0.17945,-0.039 -0.18028,-0.0338 -0.0581,0.36212 0.0688,0.22292 0.10457,0.55238 0.0804,0.74033 -0.0639,0.49613 0.0971,0.94725 0.40654,1.13876 0.66494,0.41159 0.98092,0.98296 0.98092,1.77377 0,0.50497 0,0.50497 0.74084,0.26485 0.40745,-0.13206 1.23613,-0.39675 1.8415,-0.58819 z m -19.55088,0.0778 c 0.8006,0 0.96654,-0.094 0.96654,-0.54761 0,-0.54752 -0.81609,-1.01851 -1.74031,-1.00437 -0.9068,0.0139 -1.92654,0.84478 -1.77547,1.44668 0.054,0.21512 0.054,0.21512 0.95139,0.16021 0.49357,-0.0302 1.21261,-0.0549 1.59785,-0.0549 z m -1.98599,-1.5875 c 0.10531,-0.13428 0.10232,-0.13728 -0.032,-0.032 -0.14103,0.1106 -0.18588,0.18013 -0.1162,0.18013 0.0176,0 0.0843,-0.0667 0.14817,-0.14817 z m 17.1721,-0.62929 c -0.0425,-0.1482 -0.10652,-0.29586 -0.14225,-0.32814 -0.12137,-0.10963 -1.41756,-0.65717 -1.86466,-0.78768 -0.445,-0.12989 -0.445,-0.12989 -0.39045,0.0985 0.0817,0.34208 0.1931,0.52475 0.32002,0.52475 0.21155,0 1.75,0.50322 1.93534,0.63305 0.10126,0.0709 0.19202,0.12895 0.2017,0.12895 0.01,0 -0.0172,-0.12126 -0.0597,-0.26946 z m -17.23605,-0.32441 c -0.0767,-0.22115 -0.11518,-0.53011 -0.092,-0.73963 0.0407,-0.36835 0.0156,-0.40927 -0.17642,-0.2875 -0.0894,0.0567 -0.0844,0.18713 0.0268,0.6972 0.18122,0.83172 0.20032,0.88285 0.29459,0.78858 0.0487,-0.0487 0.0285,-0.22409 -0.0529,-0.45865 z m 4.09999,0.25569 c 0.20011,-0.0908 0.6561,-0.42003 1.01332,-0.73157 0.35721,-0.31154 0.77451,-0.64021 0.92732,-0.73037 0.47063,-0.27768 0.52914,-0.28478 -1.22102,0.14816 -1.2069,0.29855 -2.55336,0.74611 -3.08474,1.02536 -0.28472,0.14962 -0.28472,0.14962 0.4291,0.26232 0.39261,0.062 0.73233,0.13121 0.75495,0.15382 0.10259,0.10259 0.85223,0.0215 1.18107,-0.12772 z m -2.9784,-0.32629 c 0.61042,-0.48129 2.08049,-1.02617 3.8031,-1.40962 0.32774,-0.073 0.72288,-0.20988 0.8781,-0.30428 0.25839,-0.15714 0.278,-0.19802 0.2322,-0.48413 -0.0626,-0.39095 -0.32111,-0.60883 -0.72242,-0.60883 -0.9735,0 -3.70235,1.12556 -4.77875,1.97108 -0.27008,0.21215 -0.31516,0.29081 -0.27226,0.47508 0.0942,0.40457 0.2343,0.6865 0.34113,0.6865 0.0581,0 0.29163,-0.14661 0.5189,-0.3258 z m -0.20484,-0.36846 c -0.13996,-0.13996 -0.12726,-0.36438 0.0279,-0.49315 0.19501,-0.16185 0.54782,0.0233 0.54782,0.28754 0,0.28496 -0.36576,0.41558 -0.57573,0.20561 z m 1.79566,-0.94638 c -0.10761,-0.28043 2.5e-4,-0.43369 0.30523,-0.43369 0.27153,0 0.29518,0.0204 0.29518,0.254 0,0.22479 -0.0317,0.25706 -0.27575,0.28057 -0.18594,0.0179 -0.29168,-0.0149 -0.32466,-0.10088 z m 1.84924,-0.44743 c -0.12703,-0.0513 -0.14195,-0.50428 -0.0191,-0.5802 0.0477,-0.0295 0.2001,-0.0287 0.33866,0.002 0.18722,0.0411 0.25194,0.10363 0.25194,0.24334 0,0.31731 -0.25096,0.46447 -0.5715,0.33513 z m 9.92371,1.30491 c -0.18123,-0.60352 -0.17207,-0.59799 -1.39395,-0.84226 -1.43338,-0.28655 -1.5754,-0.29346 -1.18493,-0.0577 0.16299,0.0984 0.48974,0.34322 0.72612,0.544 0.42639,0.36215 0.86059,0.50145 1.67142,0.53619 0.20951,0.009 0.23158,-0.013 0.18134,-0.18027 z m 2.49809,-1.05834 c -0.76246,-2.96804 -1.65359,-4.31035 -3.78548,-5.70205 -1.19787,-0.78198 -2.12943,-1.00037 -4.28629,-1.00483 -2.28177,-0.005 -3.78702,0.29819 -5.34486,1.07556 -0.55456,0.27672 -1.43183,0.82933 -1.89672,1.19478 -0.20338,0.15988 -0.20338,0.15988 0.254,0.30724 0.25156,0.081 0.66387,0.26145 0.91624,0.40091 0.25237,0.13945 0.6351,0.30589 0.8505,0.36985 0.59101,0.17551 1.16532,0.59911 1.57431,1.16119 0.20204,0.27766 0.48174,0.5744 0.62156,0.65943 0.32522,0.19778 0.51644,0.56973 0.51644,1.00455 0,0.37646 0.005,0.37865 0.59267,0.25593 0.84031,-0.1755 2.65823,-0.25606 3.81,-0.16884 2.38134,0.18034 5.24281,0.92509 6.48772,1.68854 0.006,0.004 -0.13364,-0.5554 -0.31009,-1.24226 z m -18.61348,0.46832 c 0.53052,-0.16092 1.29397,-0.31494 1.89485,-0.38226 0.28117,-0.0315 0.60393,-0.15698 0.96115,-0.37366 0.2958,-0.17943 0.55991,-0.32623 0.5869,-0.32623 0.027,0 0.43268,-0.15756 0.90152,-0.35014 0.97165,-0.39912 1.84608,-0.66586 2.1828,-0.66586 0.23025,0 0.23025,0 0.056,-0.29536 -0.21101,-0.35763 -0.68968,-0.77865 -0.73403,-0.64561 -0.048,0.14385 -0.40512,0.11234 -0.53612,-0.0473 -0.2397,-0.2921 -1.36237,-0.94974 -2.03922,-1.19454 -1.23718,-0.44745 -3.19932,-0.77037 -3.19932,-0.52652 0,0.0466 0.0914,0.0847 0.20303,0.0847 0.12516,0 0.45236,0.20731 0.8532,0.54056 0.4759,0.39566 0.74158,0.55517 0.99119,0.59509 0.4401,0.0704 0.83125,0.27406 0.83125,0.43286 0,0.16275 -0.28035,0.15806 -0.762,-0.0128 -0.7369,-0.26133 -2.45916,-0.0349 -3.27051,0.43003 -0.24316,0.13932 -0.24316,0.13932 0.003,0.10196 0.46235,-0.0702 1.90888,0.24746 2.28179,0.50103 0.0935,0.0636 0.27683,0.0876 0.452,0.0591 0.27002,-0.0438 0.2923,-0.0316 0.26604,0.14605 -0.0225,0.15195 -0.11394,0.21543 -0.42301,0.29356 -0.79676,0.2014 -2.13727,1.2393 -2.55372,1.97725 -0.15406,0.27299 -0.15406,0.27299 0.22183,0.0346 0.20674,-0.13111 0.58086,-0.30056 0.83139,-0.37655 z m 4.73118,29.80427 c 0,-0.0482 0.14792,-0.23559 0.3287,-0.41638 0.45784,-0.45784 0.80598,-0.45657 1.1318,0.004 0.28677,0.40549 0.29225,0.51383 0.026,0.51383 -0.14008,0 -0.25533,-0.082 -0.35692,-0.254 -0.0825,-0.1397 -0.17768,-0.254 -0.21146,-0.254 -0.10814,0 -0.16191,0.15573 -0.0728,0.21081 0.0473,0.0293 0.0861,0.10307 0.0861,0.16405 0,0.0774 -0.14044,0.11213 -0.46567,0.11505 -0.26735,0.002 -0.46567,-0.0332 -0.46567,-0.0835 z m 11.89429,-0.21592 c 0.24584,-1.81682 0.33589,-2.33635 0.4806,-2.77284 0.21545,-0.64984 0.37176,-0.889 0.58106,-0.889 0.19493,0 0.2151,0.14686 0.0527,0.38333 -0.22904,0.33343 -0.47034,1.138 -0.59765,1.99281 -0.0716,0.48048 -0.11373,0.88999 -0.0937,0.91002 0.0891,0.0891 0.83129,-0.44952 1.16189,-0.84332 0.48739,-0.58054 1.22403,-1.17284 1.45869,-1.17284 0.12389,0 0.22613,0.0786 0.29293,0.22522 0.12072,0.26496 0.39843,2.37714 0.32253,2.45304 -0.0286,0.0286 -0.11079,0.0294 -0.18265,0.002 -0.0879,-0.0337 -0.13065,-0.16193 -0.13065,-0.39146 0,-0.4599 -0.13624,-0.43382 -0.20724,0.0397 -0.0502,0.33501 -0.0827,0.381 -0.26932,0.381 -0.16122,0 -0.20236,-0.0356 -0.17128,-0.14816 0.28506,-1.03243 0.41561,-1.8077 0.33415,-1.98425 -0.0872,-0.189 -0.11628,-0.16914 -0.82299,0.562 -0.76472,0.79115 -1.33656,1.23077 -1.60175,1.23138 -0.0859,2e-4 -0.17602,0.0766 -0.20037,0.1697 -0.0287,0.10988 -0.11549,0.16933 -0.24707,0.16933 -0.18554,0 -0.19914,-0.027 -0.15984,-0.3175 z m -6.30331,-10.09094 c -0.15953,-0.29808 -0.0969,-0.59059 0.19443,-0.90852 0.24487,-0.26719 0.33512,-0.30891 0.68412,-0.31625 0.30668,-0.006 0.43056,0.0305 0.52226,0.15589 0.14096,0.19271 0.15679,0.58277 0.033,0.81401 -0.21617,0.40392 -1.25523,0.58862 -1.43384,0.25487 z m 0.79574,-0.27241 c 0.34369,-0.1566 0.39447,-0.57982 0.0696,-0.57982 -0.1902,0 -0.52962,0.33503 -0.52962,0.52276 0,0.17767 0.15355,0.19671 0.46005,0.0571 z m -9.38634,-0.28953 c -0.24365,-0.24365 -0.0778,-0.95789 0.25175,-1.08436 0.30542,-0.1172 0.79288,-0.0558 0.88222,0.11117 0.15633,0.2921 0.099,0.59987 -0.15984,0.85875 -0.28246,0.28246 -0.75105,0.33751 -0.97413,0.11444 z m 0.70773,-0.41102 c 0.20972,-0.22324 0.17506,-0.38727 -0.0818,-0.38727 -0.18424,0 -0.46324,0.37 -0.38026,0.50428 0.0891,0.14418 0.25654,0.10178 0.46208,-0.11701 z"
       id="path1"
       inkscape:export-filename="path1.svg"
       inkscape:export-xdpi="96"
       inkscape:export-ydpi="96" />
  </g>
</svg>
